<svg xmlns="http://www.w3.org/2000/svg" version="1.1" xmlns:xlink="http://www.w3.org/1999/xlink" xmlns:svgjs="http://svgjs.dev/svgjs" width="100%" height="100%" viewBox="0 0 1000 600"><rect width="1000" height="600" x="0" y="0" fill="#f7f7f7"/><g><rect width="333.3333333333333" height="333.3333333333333" rx="13.333333333333334" ry="13.333333333333334" y="183.76160802090163" fill="#006838" transform="matrix(0.7738050857533214,0,0,0.7738050857533214,0,28.836814798142598)" x="161.53935241699216"/><path d="M275.0015033546616 425.42828478084783L275.0015033546616 425.42828478084783Q268.8029191349847 425.42828478084783 260.5381401754155 424.7108560517186Q252.27336121584622 423.96473017342413 244.0946737037725 422.84554135598245Q235.94468334086392 421.6976553893756 229.746099121187 420.8654380635857L229.746099121187 420.8654380635857L231.38183662360174 407.23429221012947Q237.37954079912248 407.8656294917632 245.32865111787484 408.69784681755317Q253.30645858579237 409.501366994178 261.0546888603885 410.1327042758117Q268.8029191349847 410.7640415574455 274.16928602887174 410.7640415574455L274.16928602887174 410.7640415574455Q284.2993796841771 410.7640415574455 290.8997239921664 407.7508408951025Q297.5000683001557 404.76633738192476 300.8289376033156 398.5677531622478Q304.1291097573102 392.36916894257087 304.1291097573102 382.64083537557786L304.1291097573102 382.64083537557786Q304.1291097573102 374.8065136534862 301.11590909496726 370.1575754887286Q298.1314055817894 365.50863732397085 291.21539263298325 362.7250138549493Q284.2993796841771 359.91269323676244 272.7057314214479 357.645618452714L272.7057314214479 357.645618452714Q261.57123754536167 355.3785436686655 253.30645858579237 352.48013160298325Q245.04167962622313 349.5817195373009 239.4457355390148 345.1623585658646Q233.87848860097162 340.71430044526306 231.18095657944554 333.8843789439524Q228.51212170708465 327.08315459180693 228.51212170708465 316.95306093650146L228.51212170708465 316.95306093650146Q228.51212170708465 303.0923378897239 234.1941572417885 294.62667888599844Q239.87619277649233 286.161019882273 250.29325792344943 282.2295104466446Q260.73902021957167 278.2980010110162 274.5710461171841 278.2980010110162L274.5710461171841 278.2980010110162Q280.76963033686104 278.2980010110162 288.7187406556134 279.04412688931063Q296.6965481235309 279.7615556184399 304.44477839812714 280.67986439172535Q312.1930086727233 281.626870314176 317.7602556107664 282.6599676841222L317.7602556107664 282.6599676841222L316.3253981525079 296.4919935817346Q310.3276939769871 295.6597762559446 302.4646751057303 294.94234752681535Q294.63035338363864 294.2249187976861 287.3986717940155 293.5935815160523Q280.1669902043924 292.99094138358373 275.80502353128645 292.99094138358373L275.80502353128645 292.99094138358373Q265.90450706930244 292.99094138358373 259.0745855679918 295.45889621178844Q252.27336121584622 297.92685103999315 248.7436118685302 303.0062464422284Q245.24255967037934 308.0569446952985 245.24255967037934 315.9199635665554L245.24255967037934 315.9199635665554Q245.24255967037934 325.0169598519146 248.65752042103466 329.7519894641678Q252.04378402252485 334.5157162255861 259.7059228496255 337.184551097947Q267.339364527561 339.8820831194732 279.73653296691487 342.7804951851554L279.73653296691487 342.7804951851554Q290.49796390385404 345.2484500133601 298.2461941784502 348.14686207904236Q305.99442445304635 351.0452741447246 311.04512270611644 355.2637550720048Q316.09582095918654 359.5109331484501 318.47768433989575 365.8243059647877Q320.85954772060484 372.10898163196015 320.85954772060484 381.4068579614755L320.85954772060484 381.4068579614755Q320.85954772060484 397.1041985548241 315.2923007825617 406.8325321218171Q309.6963566953534 416.53216853964483 299.36538299589176 420.9802266602464Q289.0344092964302 425.42828478084783 275.0015033546616 425.42828478084783ZM361.3512251926611 423.5629700851118L345.45300455515644 423.5629700851118L345.45300455515644 275.4282860944991L361.3512251926611 275.4282860944991L361.3512251926611 325.8204800285393Q365.08185458413334 324.1847425261246 370.3334328813597 322.4342164270492Q375.61370832775117 320.6549931788085 381.61141250327194 319.42101576470617Q387.6091166787926 318.1870383506038 392.97548357267965 318.1870383506038L392.97548357267965 318.1870383506038Q403.70821736045355 318.1870383506038 410.5381388617642 320.9706618196255Q417.3393632139098 323.75428528864705 421.1847812020427 329.8667780608285Q425.00150204101044 335.95057368384465 426.436359499269 345.564118654177Q427.8999141066927 355.1776636245093 427.8999141066927 368.80880947796544L427.8999141066927 368.80880947796544L427.8999141066927 423.5629700851118L411.77211627586655 423.5629700851118L411.77211627586655 369.44014675959926Q411.77211627586655 356.0098809502992 410.22247022094734 347.9459820348862Q408.67282416602814 339.8820831194732 404.1386745979311 336.2662423246616Q399.57582788066895 332.65040152985006 390.0770715069973 332.65040152985006L390.0770715069973 332.65040152985006Q384.91158465726653 332.65040152985006 379.4304291667189 333.56871030313556Q373.9492736761712 334.5157162255861 369.21424406391804 335.95057368384465Q364.45051730249963 337.41412829126847 361.3512251926611 338.6481057053708L361.3512251926611 338.6481057053708L361.3512251926611 423.5629700851118Z " fill="#f7f7f7" transform="matrix(0.7738050857533214,0,0,0.7738050857533214,0,28.836814798142598)"/><path d="M624.6332217297559 425.2276742748008L624.6332217297559 425.2276742748008Q618.4429275177682 425.2276742748008 610.1892019017845 424.5112050373022Q601.935476285801 423.7660770303036 593.7677269783172 422.64838501980586Q585.6286364403334 421.5020342398082 579.4383422283457 420.67092992430986L579.4383422283457 420.67092992430986L581.0718920898424 407.05801441183684Q587.0615749153305 407.68850734083566 595.0000540668148 408.519611656334Q602.9671919877989 409.32205720233236 610.7050597527835 409.9525501313312Q618.4429275177682 410.5830430603299 623.8021174142575 410.5830430603299L623.8021174142575 410.5830430603299Q633.9186630477374 410.5830430603299 640.5101800327243 407.5738722628359Q647.1016970177112 404.5933602348418 650.4261142797046 398.40306602285403Q653.721872772198 392.2127718108664 653.721872772198 382.4974489503857L653.721872772198 382.4974489503857Q653.721872772198 374.67360487690127 650.712701974704 370.03088421791045Q647.7321899467099 365.38816355891964 640.8254264972237 362.6082629174252Q633.9186630477374 359.79970350643083 622.3405201697605 357.5356607159353L622.3405201697605 357.5356607159353Q611.2209176037825 355.2716179254398 602.9671919877989 352.37708220594556Q594.7134663718153 349.4825464864513 589.1250063193264 345.06909598346004Q583.5652050363375 340.6269867109689 580.8712807033429 333.8061995699824Q578.2060151398481 327.01407119849597 578.2060151398481 316.8975255650161L578.2060151398481 316.8975255650161Q578.2060151398481 303.0553398965436 583.8804515008368 294.60100289406034Q589.5548878618256 286.1466658915772 599.958021190305 282.22041447008496Q610.3898132882841 278.2941630485928 624.2033401872567 278.2941630485928L624.2033401872567 278.2941630485928Q630.3936343992444 278.2941630485928 638.3321135507286 279.0392910555913Q646.2992514717129 279.7557602930899 654.0371192366974 280.672840917088Q661.774987001682 281.61858031058614 667.3347882846709 282.65029601258414L667.3347882846709 282.65029601258414L665.9018498096738 296.4638229115567Q659.9121669841858 295.63271859605834 652.0596641412013 294.91624935855975Q644.2358200677169 294.19978012106117 637.0138101537312 293.56928719206246Q629.7918002397456 292.96745303256364 625.4356672757543 292.96745303256364L625.4356672757543 292.96745303256364Q615.5483917982739 292.96745303256364 608.7276046572874 295.4321072095587Q601.935476285801 297.8967613865538 598.410447637308 302.96936358804373Q594.9140777583149 308.0133070200337 594.9140777583149 315.8658098630181L594.9140777583149 315.8658098630181Q594.9140777583149 324.9506397945001 598.3244713288082 329.67933676199067Q601.7062061298014 334.43669249898124 609.3580975862861 337.10195806247594Q616.981330273271 339.7958823954705 629.3619186972464 342.69041811496476L629.3619186972464 342.69041811496476Q640.1089572597251 345.1550722919599 647.8468250247098 348.04960801145415Q655.5846927896944 350.9441437309484 660.6286362216844 355.15698284744Q665.6725796536742 359.39848073343154 668.0512575221695 365.70341002341905Q670.4299353906648 371.97968054390657 670.4299353906648 381.2651218618882L670.4299353906648 381.2651218618882Q670.4299353906648 396.941468778357 664.8701341076759 406.65679163883766Q659.281674055187 416.34345572981846 648.9645170352075 420.7855650023096Q638.647360015228 425.2276742748008 624.6332217297559 425.2276742748008ZM710.8674591550845 423.36485425730444L694.990500852116 423.36485425730444L694.990500852116 275.4282860985985L710.8674591550845 275.4282860985985L710.8674591550845 325.75308534049844Q714.593099190077 324.11953547900174 719.8376540085667 322.37135053950516Q725.1108675965562 320.5945068305087 731.1005504220443 319.36217974201116Q737.0902332475324 318.12985265351364 742.4494231440217 318.12985265351364L742.4494231440217 318.12985265351364Q753.1678029370004 318.12985265351364 759.9885900779868 320.9097532950081Q766.7807184494734 323.68965393650257 770.6209935624657 329.79397183999043Q774.4326099059582 335.8696309739783 775.8655483809554 345.4703187564592Q777.3271456254523 355.07100653894025 777.3271456254523 368.68392205141316L777.3271456254523 368.68392205141316L777.3271456254523 423.36485425730444L761.2209171664844 423.36485425730444L761.2209171664844 369.31441498041187Q761.2209171664844 355.9021108544385 759.6733436134874 347.8489966249545Q758.1257700604905 339.7958823954705 753.5976844794995 336.1848774384777Q749.0409401290086 332.5738724814849 739.5548874245275 332.5738724814849L739.5548874245275 332.5738724814849Q734.3963089145377 332.5738724814849 728.9224839400486 333.49095310548313Q723.4486589655595 334.43669249898124 718.7199619980689 335.8696309739783Q713.9626062610783 337.3312282184755 710.8674591550845 338.563555306973L710.8674591550845 338.563555306973L710.8674591550845 423.36485425730444ZM842.5258462378227 425.4282856613003L842.5258462378227 425.4282856613003Q827.0501107078536 425.4282856613003 818.0799158543714 419.43860283581233Q809.0810622313893 413.44892001032423 805.1834695793971 401.69882451534755Q801.2572181579048 389.9487290203709 801.2572181579048 372.40956208640574L801.2572181579048 372.40956208640574Q801.2572181579048 352.80696374844473 806.6164080543941 340.9422331754683Q811.9755979508835 329.07750260249185 821.6909208113642 323.6036776280027Q831.3775849023449 318.12985265351364 844.5892776418187 318.12985265351364L844.5892776418187 318.12985265351364Q865.2235916817777 318.12985265351364 875.7413600882568 329.5933604534908Q886.2591284947359 341.02820948396806 886.2591284947359 366.41987926091764L886.2591284947359 366.41987926091764L885.4280241792375 378.5998562983935L817.5640580033725 378.5998562983935Q817.764669389872 394.67742598786145 823.5250820593606 402.9311516038451Q829.3141534983491 411.1848772198287 844.3886662553192 411.1848772198287L844.3886662553192 411.1848772198287Q850.1490789248077 411.1848772198287 857.055842374294 410.8696307553293Q863.9912645932801 410.5830430603299 870.7833929647667 410.1531615178307Q877.6041801057531 409.75193874483153 882.3328770732437 409.32205720233236L882.3328770732437 409.32205720233236L882.7627586157429 421.93191578230727Q877.8047914922527 422.73436132830574 870.6974166562668 423.5654656438041Q863.561383050781 424.39656995930244 856.1387617502958 424.9124278103014Q848.7161404498105 425.4282856613003 842.5258462378227 425.4282856613003ZM817.5640580033725 365.5887749454193L817.5640580033725 365.5887749454193L870.1815588052679 365.5887749454193Q870.1815588052679 346.616669536457 864.07724090178 339.07941315797194Q858.0015817677921 331.5421567794869 844.5892776418187 331.5421567794869L844.5892776418187 331.5421567794869Q835.9056704833359 331.5421567794869 829.9446464273478 334.9525503499802Q823.9549636018597 338.36294392047336 820.7451814178661 345.78556522095863Q817.5640580033725 353.2081865214439 817.5640580033725 365.5887749454193ZM926.0948180996567 423.36485425730444L910.1892010271882 423.36485425730444L910.1892010271882 275.4282860985985L926.0948180996567 275.4282860985985L926.0948180996567 362.4936278394254L941.9717764026251 361.8631349104267L970.8598160585678 320.1932840575095L989.2300873080313 320.1932840575095L956.0145734575973 367.8528177359148L990.892295939028 423.36485425730444L972.5220246895645 423.36485425730444L942.4016579451243 375.9059319653988L926.0948180996567 376.73703628089714L926.0948180996567 423.36485425730444ZM1045.9744509179186 425.4282856613003L1045.9744509179186 425.4282856613003Q1030.4987153879492 425.4282856613003 1021.528520534467 419.43860283581233Q1012.5583256809849 413.44892001032423 1008.6320742594927 401.69882451534755Q1004.7058228380005 389.9487290203709 1004.7058228380005 372.40956208640574L1004.7058228380005 372.40956208640574Q1004.7058228380005 352.80696374844473 1010.0650127344899 340.9422331754683Q1015.4242026309793 329.07750260249185 1025.13952549146 323.6036776280027Q1034.8261895824407 318.12985265351364 1048.0378823219144 318.12985265351364L1048.0378823219144 318.12985265351364Q1068.6721963618734 318.12985265351364 1079.1899647683526 329.5933604534908Q1089.7077331748314 341.02820948396806 1089.7077331748314 366.41987926091764L1089.7077331748314 366.41987926091764L1088.9052876288333 378.5998562983935L1021.0126626834681 378.5998562983935Q1021.2132740699677 394.67742598786145 1027.0023455089563 402.9311516038451Q1032.7627581784445 411.1848772198287 1047.8372709354148 411.1848772198287L1047.8372709354148 411.1848772198287Q1053.5976836049035 411.1848772198287 1060.5331058238894 410.8696307553293Q1067.4398692733757 410.5830430603299 1074.2319976448625 410.1531615178307Q1081.0527847858489 409.75193874483153 1085.8101405228394 409.32205720233236L1085.8101405228394 409.32205720233236L1086.2113632958385 421.93191578230727Q1081.2533961723484 422.73436132830574 1074.1460213363625 423.5654656438041Q1067.0099877308767 424.39656995930244 1059.5873664303913 424.9124278103014Q1052.1647451299064 425.4282856613003 1045.9744509179186 425.4282856613003ZM1021.0126626834681 365.5887749454193L1021.0126626834681 365.5887749454193L1073.6301634853635 365.5887749454193Q1073.6301634853635 346.616669536457 1067.5258455818757 339.07941315797194Q1061.450186447888 331.5421567794869 1048.0378823219144 331.5421567794869L1048.0378823219144 331.5421567794869Q1039.3829339329318 331.5421567794869 1033.3932511074436 334.9525503499802Q1027.4035682819554 338.36294392047336 1024.193786097962 345.78556522095863Q1021.0126626834681 353.2081865214439 1021.0126626834681 365.5887749454193ZM1130.77574986825 423.36485425730444L1114.8987915652815 423.36485425730444L1114.8987915652815 275.4282860985985L1130.77574986825 275.4282860985985L1130.77574986825 423.36485425730444Z " fill="#006838" transform="matrix(0.7738050857533214,0,0,0.7738050857533214,0,28.836814798142598)"/></g></svg>